<svg width="225" height="32" viewBox="0 0 225 32" fill="none" xmlns="http://www.w3.org/2000/svg">
<path fill-rule="evenodd" clip-rule="evenodd" d="M41.5817 11.1332C40.1353 7.48702 37.1716 4.46659 33.1768 3.07545C26.2235 0.654215 18.6546 4.04212 15.7602 10.6814C16.3703 11.3437 16.605 12.312 16.2882 13.2218C15.8301 14.5373 14.3923 15.2325 13.0767 14.7743C11.7612 14.3162 11.066 12.8784 11.5241 11.5628C11.8515 10.6226 12.6794 9.99929 13.6054 9.88739C16.9334 2.07757 25.7943 -1.92332 33.9311 0.909932C38.8732 2.63099 42.4587 6.49438 44.01 11.0976L41.5817 11.1332ZM45.2777 6.50153C49.3056 8.99289 52.7255 12.3691 55.2662 16.3582C52.664 20.4435 49.14 23.886 44.9852 26.3936C43.4553 28.4574 41.4728 30.2164 39.1673 31.5489C46.6854 29.1158 53.0436 24.1143 57.2011 17.5859C57.678 16.8366 57.678 15.8796 57.2011 15.1304C53.1982 8.84481 47.1554 3.97435 40.0009 1.44938C42.0973 2.80209 43.8928 4.51977 45.2777 6.50153ZM17.0387 1.63742C10.1113 4.21173 4.26371 8.99738 0.357878 15.1304C-0.119293 15.8796 -0.119293 16.8366 0.357878 17.5859C4.41648 23.9588 10.5718 28.877 17.8565 31.3708C15.5852 30.0039 13.6403 28.2187 12.152 26.1345C8.18064 23.6511 4.80636 20.3046 2.29306 16.3582C4.74674 12.5053 8.02117 9.22413 11.8706 6.75981C13.2168 4.76053 14.9759 3.01973 17.0387 1.63742ZM15.3156 20.8668C16.7619 24.513 19.7254 27.5334 23.7201 28.9247C30.6735 31.3459 38.2425 27.9578 41.1367 21.3184C40.5265 20.6562 40.2919 19.6879 40.6088 18.7781C41.067 17.4625 42.5044 16.7674 43.8203 17.2255C45.1355 17.6836 45.8311 19.1214 45.3729 20.437C45.0455 21.3772 44.2175 22.0005 43.2916 22.1124C39.9637 29.9223 31.1027 33.9234 22.9659 31.0901C18.0237 29.3691 14.4382 25.5056 12.8873 20.9025L15.3156 20.8668ZM28.777 27.325C34.7556 27.325 39.6025 22.3602 39.6025 16.2357C39.6025 10.1112 34.7556 5.14635 28.777 5.14635C22.7984 5.14635 17.9521 10.1112 17.9521 16.2357C17.9521 22.3602 22.7984 27.325 28.777 27.325ZM32.3038 13.246C32.3038 14.5796 31.5924 15.7429 30.5366 16.3593L31.4116 21.5725C31.5061 22.1371 31.0817 22.6531 30.5221 22.6531H26.9753C26.4163 22.6531 25.9912 22.1371 26.0865 21.5725L26.9718 16.2936C25.9761 15.6627 25.3122 14.5337 25.3122 13.246C25.3122 11.2683 26.878 9.66508 28.808 9.66508C30.7388 9.66508 32.3038 11.2683 32.3038 13.246ZM70.7084 8.30722H64.1384V24.5083H67.7881V19.3042H70.6849C72.0036 19.3042 73.0001 19.0765 73.6756 18.6213C74.3505 18.166 74.7901 17.5538 74.9943 16.7845C75.2138 16.0153 75.3235 15.0184 75.3235 13.7939C75.3235 12.5066 75.2062 11.4784 74.9702 10.7092C74.7507 9.93988 74.3112 9.3512 73.6515 8.94303C72.9925 8.5192 72.0112 8.30722 70.7084 8.30722ZM70.9202 16.1016C70.6221 16.2115 70.1274 16.2665 69.4366 16.2665H67.7881V11.3449H69.4366C70.1274 11.3449 70.6221 11.3999 70.9202 11.5098C71.2183 11.6197 71.415 11.8395 71.5089 12.1691C71.6034 12.4831 71.6503 13.0247 71.6503 13.7939C71.6503 14.5632 71.6034 15.1126 71.5089 15.4423C71.415 15.7563 71.2183 15.976 70.9202 16.1016ZM84.0643 18.8332L85.9482 24.5083H89.7869L87.5263 18.268C88.2951 17.8913 88.8057 17.3026 89.0569 16.5019C89.3081 15.6856 89.4336 14.7044 89.4336 13.5584C89.4336 12.3339 89.3156 11.3528 89.0803 10.615C88.8602 9.87709 88.4131 9.31194 87.7382 8.91951C87.0633 8.51134 86.0586 8.30722 84.724 8.30722H78.0595V24.5083H81.7099V18.8332H84.0643ZM85.0063 15.6542C84.724 15.7641 84.2375 15.8191 83.5468 15.8191H81.7099V11.3449H83.5703C84.261 11.3449 84.7475 11.3999 85.0297 11.5098C85.3285 11.6039 85.5169 11.8002 85.5949 12.0984C85.6894 12.381 85.7363 12.8756 85.7363 13.582C85.7363 14.2727 85.6894 14.7672 85.5949 15.0655C85.501 15.3481 85.3051 15.5443 85.0063 15.6542ZM92.5327 8.30722V24.5083H96.2058V8.30722H92.5327ZM98.4678 8.30722L102.495 24.5083H107.558L111.584 8.30722H107.887L105.179 20.6228H104.991L102.212 8.30722H98.4678ZM120.998 21.2586L121.823 24.5083H125.543L121.234 8.30722H116.1L111.767 24.5083H115.441L116.218 21.2586H120.998ZM118.526 11.6039H118.667L120.268 18.2445H116.948L118.526 11.6039ZM129.506 11.4627V24.5083H133.18V11.4627H137.018V8.30722H125.692V11.4627H129.506ZM139.388 8.30722V24.5083H149.137V21.4706H143.038V17.8441H148.265V14.8065H143.038V11.3449H149.137V8.30722H139.388ZM160.209 21.2586L161.034 24.5083H164.755L160.445 8.30722H155.311L150.979 24.5083H154.652L155.429 21.2586H160.209ZM157.737 11.6039H157.878L159.48 18.2445H156.16L157.737 11.6039ZM167 8.30722V24.5083H170.674V8.30722H167ZM174.066 21.2586V24.5083H177.74V21.2586H174.066ZM188.673 24.5789C189.348 24.5004 189.905 24.4062 190.345 24.2963V21.447C189.435 21.5883 188.524 21.659 187.613 21.659C186.546 21.659 185.808 21.5569 185.4 21.3528C185.007 21.133 184.756 20.7013 184.646 20.0577C184.537 19.3983 184.481 18.1817 184.481 16.4077C184.481 14.6338 184.537 13.425 184.646 12.7814C184.756 12.122 185.007 11.6903 185.4 11.4862C185.808 11.2664 186.546 11.1565 187.613 11.1565C188.053 11.1565 188.94 11.2272 190.274 11.3685V8.54273C189.85 8.41714 189.309 8.31509 188.649 8.23663C188.005 8.1581 187.377 8.11884 186.765 8.11884C185.007 8.11884 183.704 8.37001 182.856 8.87237C182.025 9.37473 181.467 10.1989 181.184 11.3449C180.902 12.4752 180.761 14.1629 180.761 16.4077C180.761 18.6841 180.894 20.3873 181.161 21.5176C181.444 22.6479 182.001 23.4643 182.833 23.9666C183.681 24.4533 184.991 24.6966 186.765 24.6966C187.362 24.6966 187.998 24.6574 188.673 24.5789ZM194.749 23.9902C195.597 24.4611 197.002 24.6966 198.964 24.6966C200.943 24.6966 202.347 24.4611 203.18 23.9902C204.027 23.5035 204.553 22.7343 204.757 21.6825C204.961 20.6307 205.063 18.8725 205.063 16.4077C205.063 13.9431 204.961 12.1848 204.757 11.133C204.553 10.0812 204.027 9.3198 203.18 8.84884C202.347 8.36222 200.943 8.11884 198.964 8.11884C197.002 8.11884 195.597 8.36222 194.749 8.84884C193.917 9.3198 193.391 10.089 193.172 11.1565C192.968 12.2084 192.865 13.9587 192.865 16.4077C192.865 18.8567 192.968 20.615 193.172 21.6825C193.391 22.7343 193.917 23.5035 194.749 23.9902ZM200.66 21.3999C200.377 21.5726 199.812 21.659 198.964 21.659C198.117 21.659 197.543 21.5726 197.245 21.3999C196.963 21.2272 196.782 20.8191 196.704 20.1754C196.626 19.5318 196.586 18.2759 196.586 16.4077C196.586 14.5396 196.626 13.2837 196.704 12.6401C196.782 11.9964 196.963 11.5883 197.245 11.4156C197.543 11.2429 198.117 11.1565 198.964 11.1565C199.812 11.1565 200.377 11.2429 200.66 11.4156C200.958 11.5883 201.147 11.9964 201.225 12.6401C201.303 13.2837 201.343 14.5396 201.343 16.4077C201.343 18.2759 201.303 19.5318 201.225 20.1754C201.147 20.8191 200.958 21.2272 200.66 21.3999ZM220.702 13.2994V24.5083H224.234V8.30722H219.03L216.322 18.6919H216.157L213.449 8.30722H208.198V24.5083H211.636V13.2994H211.8L214.721 24.5083H217.593L220.537 13.2994H220.702Z" fill="white"/>
</svg>
